<?xml version="1.0" encoding="UTF-8"?>
<svg width="241px" height="35px" viewBox="0 0 241 35" version="1.1" xmlns="http://www.w3.org/2000/svg" xmlns:xlink="http://www.w3.org/1999/xlink">
    <!-- Generator: Sketch 45.2 (43514) - http://www.bohemiancoding.com/sketch -->
    <title>Group 2</title>
    <desc>Created with Sketch.</desc>
    <defs>
        <path d="M17.5,34.8670787 C7.87211891,34.8670787 0.0671791764,27.0621389 0.0671791764,17.4342578 C0.0671791764,7.80637675 7.87211891,0.00143701044 17.5,0.00143701044 C27.1278811,0.00143701044 34.9328208,7.80637675 34.9328208,17.4342578 C34.9328208,27.0621389 27.1278811,34.8670787 17.5,34.8670787 Z M17.5,14.2103622 C19.1127793,14.2103622 20.4201953,12.9029463 20.4201953,11.2901669 C20.4201953,9.6773876 19.1127793,8.36997163 17.5,8.36997163 C15.8872207,8.36997163 14.5798047,9.6773876 14.5798047,11.2901669 C14.5798047,12.9029463 15.8872207,14.2103622 17.5,14.2103622 Z M12.640795,15.0280169 L12.640795,17.854766 L16.1928816,17.854766 L16.1928816,26.5063991 L18.8443524,26.5063991 L18.8443524,17.854766 L22.359205,17.854766 L22.359205,15.0280169 L12.640795,15.0280169 Z M11.0989319,12.0143754 C10.7118649,12.0143754 10.398085,12.3281552 10.398085,12.7152222 L10.398085,20.0741144 C10.398085,20.4611814 10.7118649,20.7749613 11.0989319,20.7749613 C11.4859989,20.7749613 11.7997788,20.4611814 11.7997788,20.0741144 L11.7997788,20.0741144 L11.7997788,12.7152222 C11.7997788,12.3281552 11.4859989,12.0143754 11.0989319,12.0143754 Z M8.87958348,13.1824535 C8.49251644,13.1824535 8.17873661,13.4962333 8.17873661,13.8833004 L8.17873661,18.9060363 C8.17873661,19.2931033 8.49251644,19.6068831 8.87958348,19.6068831 C9.26665052,19.6068831 9.58043035,19.2931033 9.58043035,18.9060363 L9.58043035,13.8833004 C9.58043035,13.4962333 9.26665052,13.1824535 8.87958348,13.1824535 Z M6.63687349,14.5140625 C6.24980645,14.5140625 5.93602662,14.8278424 5.93602662,15.2149094 L5.93602662,17.9014891 C5.93602662,18.2885561 6.24980645,18.602336 6.63687349,18.602336 C7.02394053,18.602336 7.33772036,18.2885561 7.33772036,17.9014891 L7.33772036,17.9014891 L7.33772036,15.2149094 C7.33772036,14.8278424 7.02394053,14.5140625 6.63687349,14.5140625 Z M23.9010681,12.0143754 C23.5140011,12.0143754 23.2002212,12.3281552 23.2002212,12.7152222 L23.2002212,20.0741144 C23.2002212,20.4611814 23.5140011,20.7749613 23.9010681,20.7749613 C24.2881351,20.7749613 24.601915,20.4611814 24.601915,20.0741144 L24.601915,12.7152222 C24.601915,12.3281552 24.2881351,12.0143754 23.9010681,12.0143754 Z M26.1204165,13.1824535 C25.7333495,13.1824535 25.4195696,13.4962333 25.4195696,13.8833004 L25.4195696,18.9060363 C25.4195696,19.2931033 25.7333495,19.6068831 26.1204165,19.6068831 C26.5074836,19.6068831 26.8212634,19.2931033 26.8212634,18.9060363 L26.8212634,13.8833004 C26.8212634,13.4962333 26.5074836,13.1824535 26.1204165,13.1824535 Z M28.3631265,14.5140625 L28.3631265,14.5140625 C27.9760595,14.5140625 27.6622796,14.8278424 27.6622796,15.2149094 L27.6622796,17.9014891 C27.6622796,18.2885561 27.9760595,18.602336 28.3631265,18.602336 C28.7501935,18.602336 29.0639734,18.2885561 29.0639734,17.9014891 L29.0639734,15.2149094 C29.0639734,14.8278424 28.7501935,14.5140625 28.3631265,14.5140625 L28.3631265,14.5140625 Z" id="path-1"></path>
        <rect id="path-3" x="-6.77570855" y="14" width="6.77570855" height="8.47368421"></rect>
    </defs>
    <g id="Page-1" stroke="none" stroke-width="1" fill="none" fill-rule="evenodd">
        <g id="Group-2">
            <g id="Group" transform="translate(98.184211, 0.000000)">
                <g id="Group-3">
                    <mask id="mask-2" fill="white">
                        <use xlink:href="#path-1"></use>
                    </mask>
                    <use id="Combined-Shape" fill="#000000" xlink:href="#path-1"></use>
                    <g id="Rectangle-2" mask="url(#mask-2)">
                        <use fill="#D8D8D8" fill-rule="evenodd" xlink:href="#path-3"></use>
                        <rect stroke="#979797" stroke-width="1" x="-6.27570855" y="14.5" width="5.77570855" height="7.47368421"></rect>
                    </g>
                </g>
            </g>
            <g id="FITNESS" transform="translate(141.105263, 10.684211)" fill="#000000">
                <path d="M48.889281,7.4448577 C48.8988053,7.31877912 48.9165384,7.19264792 48.9166436,7.06656934 C48.9183801,5.03263138 48.9178539,2.99874605 48.9181696,0.964808089 C48.9181696,0.859619824 48.9198534,0.75443156 48.9228528,0.649295916 C48.9289568,0.431552526 49.0408278,0.289214229 49.2571505,0.285267696 C49.8791241,0.273954301 50.5015187,0.275164571 51.1235976,0.282847156 C51.304875,0.285109835 51.4107473,0.404821341 51.4296907,0.585677801 C51.4415303,0.698653891 51.4415829,0.813208594 51.4415829,0.927026611 C51.4421091,4.82830621 51.4435825,8.7295858 51.4368997,12.6308128 C51.4366366,12.8011451 51.4146412,13.0605113 51.3099792,13.1230244 C51.0941827,13.2518392 50.8999607,13.0570384 50.7462038,12.901545 C50.0375643,12.1849598 49.3401329,11.4572717 48.629336,10.7428965 C47.0093104,9.11455696 45.3839702,7.49158465 43.7599981,5.8671916 C43.7059569,5.81309778 43.6439174,5.7670549 43.5345195,5.67360099 C43.5177336,5.83872394 43.4962118,5.95206837 43.496054,6.06546543 C43.4940544,8.16075882 43.4946332,10.2559996 43.4942649,12.351293 C43.4942649,12.4652689 43.4920022,12.5791921 43.4893712,12.6931154 C43.4837408,12.9335908 43.3599249,13.082875 43.1212386,13.0869268 C42.5255751,13.0969773 41.9293855,13.0986085 41.33388,13.0844536 C41.0785656,13.0783496 40.9388057,12.9163313 40.9279659,12.6563337 C40.9235984,12.5512507 40.9220198,12.4460098 40.9220198,12.3408215 C40.9217041,8.50094998 40.9217567,4.66102582 40.9218619,0.821154281 C40.9218619,0.733488624 40.9036553,0.639455893 40.9291235,0.559630682 C40.9717461,0.426185241 41.0163682,0.224491085 41.108454,0.193024061 C41.2265343,0.152769422 41.4232821,0.213546033 41.5316276,0.299527836 C41.8189878,0.527584833 42.0850368,0.784530453 42.3454028,1.04415972 C44.4125442,3.10567079 46.4761601,5.1706548 48.5418282,7.23363925 C48.6261261,7.31783195 48.7197905,7.39276346 48.8090874,7.47195723 L48.889281,7.4448577 Z" id="Fill-14"></path>
                <path d="M58.1221022,6.67516271 C58.1221022,4.80750535 58.1220496,2.93979536 58.1223127,1.072138 C58.1223127,0.958162127 58.1203131,0.843923146 58.1274695,0.730315611 C58.1490965,0.386125298 58.2547057,0.273833274 58.6012639,0.27335969 C61.187927,0.2697815 63.7745901,0.26983412 66.3612532,0.273043967 C66.7089164,0.273464931 66.8345214,0.399017306 66.84373,0.753731708 C66.8551487,1.19184951 66.8544646,1.63059876 66.8456244,2.0688218 C66.8368894,2.50020419 66.703707,2.62822973 66.2652209,2.62912427 C64.6079927,2.63238674 62.9507645,2.63080813 61.2935362,2.63128171 C61.188348,2.63133433 61.0831071,2.63375487 60.9779188,2.63464942 C60.7972202,2.63622803 60.6982938,2.72389369 60.6980833,2.90774952 C60.6969783,3.70563328 60.6971362,4.50351705 60.6973993,5.30140082 C60.6975045,5.563398 60.8762561,5.585025 61.076056,5.58486714 C62.2334952,5.58397259 63.3909345,5.58481452 64.5483737,5.58497238 C65.4837021,5.58513024 65.4837547,5.585025 65.4837021,6.50404103 C65.4837021,6.79340084 65.4847545,7.08276065 65.4832811,7.37212046 C65.4807553,7.85712308 65.3992463,7.94399943 64.9190321,7.9452097 C63.7265476,7.94815645 62.5340632,7.94626211 61.3415261,7.94684094 C61.2100802,7.94689356 61.0668474,7.9189521 60.9506614,7.96204824 C60.8508931,7.99904041 60.7123961,8.11748903 60.7103439,8.20283939 C60.6917162,8.96515174 60.6917689,9.72825339 60.7107122,10.4905657 C60.7127644,10.5741796 60.8561025,10.6772631 60.9559235,10.7279892 C61.0332755,10.7673493 61.1449887,10.7404602 61.2413894,10.7405128 C62.8986176,10.7408812 64.5558458,10.7401445 66.213074,10.7412495 C66.7662201,10.7416705 66.8463084,10.8231796 66.8490447,11.3856921 C66.850939,11.7802402 66.8555696,12.1750513 66.8442036,12.5693363 C66.8330481,12.9553073 66.6997079,13.0901735 66.3100535,13.096751 C65.6788713,13.1073277 65.047426,13.1021709 64.4161385,13.1023288 C62.6273592,13.1026971 60.8386325,13.1024866 59.0498532,13.1023814 C58.9446649,13.1023814 58.8393714,13.1034864 58.7341832,13.1010659 C58.248707,13.0897525 58.124628,12.9697779 58.1234703,12.4886166 C58.1205762,11.2610343 58.1222074,10.033452 58.1221022,8.80586966 C58.1220496,8.09565155 58.1221022,7.38538082 58.1221022,6.67516271" id="Fill-16"></path>
                <path d="M78.2231787,13.2352691 C76.6989749,13.2357953 75.2706983,12.857349 73.9077236,12.2029086 C73.479551,11.9973205 73.4430851,11.8684004 73.6683532,11.443122 C73.8694159,11.063676 74.068479,10.683125 74.2689103,10.303258 C74.458186,9.94449184 74.6107853,9.89802799 74.9949672,10.0455231 C75.5425355,10.2557418 76.0884199,10.4744323 76.6476174,10.6492374 C77.2891658,10.8497739 77.9558668,10.8976059 78.6255672,10.8387236 C79.1360381,10.7938384 79.6004135,10.6341354 79.9650732,10.2465858 C80.4531804,9.72774823 80.4138203,8.94696611 79.8208932,8.55047108 C79.4249243,8.28573763 78.9805973,8.07830785 78.533955,7.90797548 C77.8221583,7.63661186 77.0808941,7.44217932 76.369571,7.16955281 C75.6134678,6.87982465 74.902934,6.50500924 74.3743617,5.85330506 C73.7146592,5.03989827 73.605998,4.0970978 73.7514409,3.1168842 C74.018858,1.31421309 75.4141416,0.292376718 77.1888713,0.117518988 C78.9141903,-0.0524976613 80.5230077,0.418034334 82.0908864,1.07210643 C82.3835613,1.19418586 82.4292359,1.34057593 82.3036309,1.64182796 C82.1281943,2.0625284 81.9464433,2.48059781 81.766534,2.89945653 C81.6108828,3.26169566 81.4624405,3.31805215 81.0845205,3.1953939 C80.4349211,2.98454379 79.7914257,2.73933253 79.1264612,2.59636279 C78.6199894,2.48749109 78.0832609,2.47828251 77.561845,2.49217431 C77.093523,2.50469798 76.6659819,2.68708043 76.4127724,3.12335652 C76.1305163,3.60983251 76.2261276,4.17350268 76.7120248,4.4636518 C77.2194437,4.76669293 77.7708007,5.00285348 78.3191584,5.22901614 C79.1689785,5.57962614 80.0436881,5.87119602 80.8861414,6.23775002 C81.4156083,6.46812231 81.8802994,6.81599606 82.2717429,7.25995473 C83.240801,8.35898529 83.1899696,10.0533635 82.4849083,11.1944904 C81.7629032,12.3629274 80.6507702,12.9140739 79.3472039,13.1398682 C78.9781242,13.203802 78.5981519,13.2051702 78.2231787,13.2352691" id="Fill-18"></path>
                <path d="M94.3645339,13.2346166 C92.8492231,13.2334063 91.4288395,12.8568544 90.0729159,12.2077813 C89.6376396,11.9994043 89.5978059,11.8696949 89.818917,11.4523622 C90.020085,11.0728109 90.2196743,10.6923651 90.4196846,10.3121824 C90.6156431,9.93978757 90.7658219,9.89553378 91.1657899,10.0518165 C91.6878373,10.2557207 92.2100425,10.4626769 92.743456,10.6330619 C93.3929501,10.8404917 94.067018,10.8951643 94.7463479,10.8414915 C95.2568714,10.8011842 95.7251933,10.6521631 96.0963779,10.2710333 C96.622635,9.73067393 96.5599114,8.95852156 95.9461466,8.51456289 C95.3225417,8.06350046 94.5847505,7.88311758 93.8751112,7.62980277 C93.1172716,7.35922846 92.3504865,7.09449501 91.6316913,6.73825462 C90.6485835,6.25104194 90.0186642,5.44537035 89.8890601,4.32708071 C89.6447434,2.21842172 90.7380383,0.676537519 92.744561,0.212530459 C93.6964122,-0.00758085173 94.6523151,0.0277800855 95.5864858,0.253048199 C96.4611955,0.464003553 97.317067,0.758151825 98.1722544,1.04272318 C98.5542262,1.16985417 98.5947965,1.32050649 98.4392505,1.68932317 C98.2689181,2.09329031 98.0953759,2.49594193 97.9223073,2.89885666 C97.7666034,3.26141151 97.6180559,3.3180311 97.2404516,3.19553071 C96.5905891,2.9846806 95.9469359,2.73925886 95.2817609,2.59634174 C94.7750786,2.48741742 94.2379291,2.47820884 93.7168289,2.4963629 C93.4434131,2.50583458 93.1472652,2.62449367 92.9101575,2.77214664 C92.2639785,3.17458778 92.2298804,4.05713784 92.8700081,4.46363075 C93.3603254,4.77503853 93.9114193,4.99862279 94.4519365,5.2213125 C95.3102811,5.5749745 96.194936,5.86664961 97.04423,6.23967592 C97.6309479,6.49735823 98.1524691,6.87664638 98.5438599,7.40758664 C98.8796836,7.86322705 99.0785363,8.35943782 99.1237372,8.93152727 C99.3369026,11.6305876 97.2557115,12.8789024 95.4895064,13.1431096 C95.1182691,13.1986242 94.7397177,13.2054122 94.3645339,13.2346166" id="Fill-21"></path>
                <path d="M0.000984002272,6.65566157 C0.000984002272,4.79658134 0.00093138183,2.93750111 0.0011418636,1.07842089 C0.00119448404,0.964445007 -0.00085771321,0.850153407 0.00587770341,0.736493251 C0.0265049168,0.389408814 0.131693181,0.284536272 0.473989159,0.272486191 C0.640427618,0.266645322 0.807181799,0.269644687 0.97377812,0.269644687 C3.33275255,0.269539446 5.69167436,0.269276344 8.05059617,0.269855168 C8.64741723,0.27001303 8.72655837,0.350785409 8.72834747,0.958762 C8.7294525,1.32705248 8.73371475,1.69550081 8.72503238,2.06363343 C8.71477139,2.49854138 8.58464104,2.62804029 8.14920688,2.62898746 C6.49182081,2.63246041 4.83443473,2.63077656 3.17704866,2.63125014 C3.07180778,2.63130276 2.96661951,2.6342495 2.86137863,2.6342495 C2.66399935,2.63430212 2.57501818,2.73712247 2.5750708,2.92945019 C2.57538652,3.70991659 2.57696514,4.49038299 2.57333433,5.27079677 C2.57217668,5.51585017 2.70488543,5.5867299 2.92441792,5.58536177 C3.54697037,5.58152048 4.16962807,5.58457247 4.79223314,5.58499343 C5.46745866,5.58546701 6.14273679,5.58120476 6.81790969,5.58815066 C7.26728827,5.59278125 7.3592688,5.69039218 7.36179458,6.13198293 C7.36421512,6.55289385 7.3641625,6.97380476 7.3618472,7.39471568 C7.35932142,7.85467097 7.27233983,7.94370476 6.80133425,7.94502027 C5.63500214,7.94833536 4.46872266,7.9463884 3.30239056,7.94659888 C3.19714967,7.9466515 3.09190879,7.94570433 2.98672052,7.94712509 C2.61995604,7.95212403 2.57422887,7.99332583 2.57365005,8.35630165 C2.57149261,9.68044246 2.5727555,11.0046359 2.57217668,12.3287767 C2.57212406,12.4427526 2.57112427,12.5568337 2.56486244,12.6705991 C2.55123374,12.9185466 2.41473631,13.0763027 2.17194559,13.0824067 C1.58517504,13.0971404 0.997352078,13.1015079 0.410844628,13.0825119 C0.132535108,13.0734612 0.0166122736,12.9230194 0.00729845535,12.6273977 C-0.00406756019,12.2682106 0.00124710448,11.9084446 0.0011418636,11.5489417 C0.000773520502,9.91781327 0.000984002272,8.28673742 0.000984002272,6.65566157" id="Fill-24"></path>
                <path d="M28.1359947,7.79319977 C28.1357316,6.22400556 28.1364156,4.65481135 28.135258,3.08561713 C28.1349423,2.66833703 28.0993708,2.63266037 27.6877211,2.63176582 C26.8812602,2.62997672 26.0746941,2.63355491 25.2682332,2.62955576 C24.7672339,2.6270826 24.6660975,2.52310461 24.6636769,2.02710432 C24.66173,1.62387387 24.6605723,1.22053818 24.6644662,0.817360347 C24.6688337,0.372559748 24.7651817,0.272212564 25.2075618,0.271370637 C26.8118539,0.268318652 28.4160933,0.269686783 30.0203327,0.269581542 C31.2301293,0.269528922 32.4398733,0.268318652 33.6496699,0.270633951 C34.1436706,0.271581119 34.2307048,0.360614907 34.2333358,0.856088993 C34.2355985,1.27684205 34.2390188,1.69780559 34.230126,2.11840078 C34.2221803,2.49679438 34.0983644,2.62308345 33.715919,2.62676688 C32.8831479,2.63471256 32.0503241,2.63008197 31.2175004,2.63129224 C30.7302351,2.63202892 30.7103972,2.6507618 30.7103446,3.13150216 C30.7098184,6.17343731 30.7100288,9.21542508 30.7099762,12.2573602 C30.7099762,12.3625485 30.7110813,12.4677894 30.7088186,12.5729776 C30.7001362,12.981628 30.6001574,13.0915521 30.1942433,13.0983401 C29.6947174,13.1066542 29.1947706,13.1075487 28.6952973,13.0978139 C28.2482867,13.0890789 28.1376259,12.9715775 28.1370471,12.5270926 C28.1350475,10.9491108 28.1362578,9.37118159 28.1359947,7.79319977" id="Fill-27"></path>
                <path d="M17.9820735,6.68732855 C17.9820735,8.60750111 17.9825997,10.5276737 17.9817578,12.4478462 C17.9814947,13.0223562 17.9045636,13.0993399 17.3285802,13.1016552 C16.8726241,13.1034969 16.4165627,13.1078644 15.9608171,13.0976035 C15.543537,13.0881844 15.4119858,12.9536339 15.4117227,12.533144 C15.4094601,8.63144341 15.4093022,4.72969024 15.4120911,0.827937056 C15.4124068,0.371244237 15.5182265,0.273896418 15.9748141,0.270739192 C16.4395052,0.267476725 16.9041964,0.268318652 17.3689401,0.270160367 C17.9075103,0.272317805 17.9815473,0.344828775 17.9817578,0.874190425 C17.9825471,2.81188559 17.9820735,4.74963338 17.9820735,6.68732855" id="Fill-29"></path>
            </g>
            <g id="TOPPER" transform="translate(0.000000, 10.684211)" fill="#000000">
                <path d="M83.1811047,4.39133378 L83.1818502,4.39133378 C83.1818502,4.88765856 83.1838877,5.38398334 83.1809059,5.88025842 C83.1796635,6.08804193 83.2557994,6.21238404 83.4824678,6.2113901 C84.1772828,6.20830888 84.872545,6.22401316 85.5666641,6.20199735 C86.2710209,6.17968336 86.8829908,5.95609618 87.2433941,5.28652736 C87.8412003,4.17604601 87.2713238,2.57475625 85.7181906,2.57912959 C84.9902774,2.58116717 84.2623145,2.5771914 83.5344013,2.58022293 C83.2359206,2.58146535 83.1850308,2.63141092 83.1823471,2.92720797 C83.1778247,3.41523334 83.1811047,3.90330841 83.1811047,4.39133378 L83.1811047,4.39133378 Z M89.9400076,5.31848258 C89.9277677,5.34004012 89.7738205,5.80437098 89.6720409,6.0392891 C89.2945915,6.91062808 88.6492749,7.53199072 87.8274839,7.98324025 C87.509522,8.15782611 87.5120068,8.15429761 87.6712363,8.49233718 C88.2990098,9.82516329 88.9266343,11.1580888 89.5492891,12.4933004 C89.7159731,12.8507715 89.647739,12.9568251 89.2513054,12.9616954 C88.6801368,12.9688021 88.1088191,12.9605027 87.5376008,12.9642299 C87.1746133,12.9666651 86.9477461,12.8128029 86.7921942,12.4694458 C86.2492039,11.2708018 85.6735129,10.0870172 85.1254037,8.89060962 C85.0029501,8.6232393 84.8346261,8.52195665 84.5481721,8.5381082 C84.2097846,8.55719188 83.869459,8.53994699 83.5300776,8.54402215 C83.2359703,8.54755064 83.1830429,8.5977944 83.1822477,8.89592721 C83.1790174,10.0550123 83.1809556,11.2140974 83.1799617,12.3731825 C83.1795144,12.889734 83.1095906,12.9613972 82.5938342,12.9642299 C82.1385096,12.9667645 81.6830358,12.9698954 81.2278602,12.9614966 C80.8144798,12.9538432 80.7016675,12.8347193 80.7015184,12.4178105 C80.700425,8.5431773 80.7003753,4.66854411 80.7016178,0.793910924 C80.7017668,0.349022624 80.7921658,0.25772908 81.2451051,0.256735138 C82.6525265,0.253554525 84.0602958,0.237651458 85.4673694,0.261804241 C86.4777608,0.279098826 87.466037,0.429929477 88.3258463,1.03181087 C89.0724456,1.55442541 89.5733922,2.25321611 89.8345007,3.12569813 C89.8652632,3.228422 89.9016135,3.3307502 89.9400076,3.42999337 C90.0467928,3.70601801 90.0232153,5.17193252 89.9400076,5.31848258 Z" id="Fill-1"></path>
                <path d="M22.0147008,10.7984956 C23.6019263,10.8117647 24.7583278,10.0367884 25.3438091,8.55979104 C25.8197084,7.35910948 25.861454,6.14138182 25.449813,4.91595111 C25.1852257,4.12820262 24.7565387,3.4467065 24.055611,2.97359026 C23.3082663,2.46916485 22.4722122,2.34288456 21.5879023,2.42841324 C20.3616267,2.54704018 19.4515737,3.14101974 18.88289,4.23013134 C18.1808193,5.57473566 18.1223755,6.97022979 18.6262542,8.39116883 C19.1849985,9.96676519 20.3439843,10.7845307 22.0147008,10.7984956 M22.0802513,13.1633314 C20.5818345,13.135004 19.1874337,12.8066554 17.9924176,11.8499368 C17.1188423,11.1505994 16.5465803,10.2386579 16.1854316,9.1962119 C15.4986676,7.2138449 15.5659575,5.24524399 16.4602565,3.34646748 C17.3795035,1.39486298 18.9768672,0.354951486 21.1045981,0.107956977 C22.2304856,-0.0226966585 23.3399233,0.05761383 24.4118894,0.438293497 C26.0539308,1.02143909 27.1486581,2.180226 27.762765,3.78330486 C28.5362504,5.8024477 28.4967413,7.82506934 27.6006531,9.79898784 C26.7809991,11.6044332 25.3637874,12.6733678 23.4101453,13.0141407 C22.9715188,13.0906742 22.5237978,13.1149761 22.0802513,13.1633314" id="Fill-3"></path>
                <path d="M65.8308182,6.60122894 C65.8307188,4.68794088 65.8302218,2.77470253 65.831017,0.861414474 C65.8312158,0.331295674 65.904022,0.256004591 66.4322523,0.255706409 C68.9087574,0.254265193 71.3852128,0.254364587 73.861718,0.255607014 C74.3512839,0.2558555 74.4209592,0.328413243 74.4224502,0.818277404 C74.4236429,1.2241038 74.4239411,1.62993019 74.4223011,2.03580628 C74.4204623,2.50335645 74.3456185,2.57904511 73.8678307,2.57979056 C72.5426082,2.58172875 71.2174355,2.58053602 69.892213,2.58073481 C69.4946364,2.5807845 69.0970597,2.57795177 68.6995327,2.5826233 C68.4128799,2.5860027 68.3594556,2.63574948 68.3579149,2.91529558 C68.3538895,3.66900156 68.3540386,4.42275724 68.3576168,5.17641353 C68.3590083,5.47131603 68.410246,5.5211125 68.7117582,5.52180826 C69.8961391,5.5245913 71.0805697,5.52324948 72.2649506,5.52364706 C72.3808939,5.52369675 72.4969863,5.52185796 72.6127805,5.52657918 C72.9979329,5.54233316 73.1185974,5.65981707 73.1234678,6.04049673 C73.1289344,6.47112197 73.1289841,6.901946 73.1234678,7.33257123 C73.1181005,7.75201463 73.0235269,7.84718454 72.6083575,7.84812879 C71.3411315,7.85091182 70.0739056,7.84892394 68.8066796,7.85001728 C68.3813223,7.85036516 68.3566228,7.87551188 68.3559768,8.30086923 C68.3550325,8.95518104 68.3540386,9.60949285 68.3568713,10.2638047 C68.3583125,10.5908115 68.4038847,10.6372286 68.7337243,10.6376261 C70.4150761,10.639614 72.0964775,10.6386698 73.7778293,10.6392661 C73.8854235,10.6392661 73.9931667,10.6407571 74.1006615,10.6458759 C74.2980584,10.6552189 74.412312,10.760527 74.4142501,10.9580232 C74.4196174,11.5127918 74.4190708,12.0677094 74.4161883,12.6225277 C74.4151447,12.8214154 74.2953747,12.9244375 74.1075694,12.9478945 C73.992968,12.9622073 73.8763289,12.9644436 73.7605844,12.9644933 C71.3503752,12.9653382 68.940166,12.9651394 66.5299568,12.96504 C66.4719603,12.96504 66.4139141,12.9652388 66.356017,12.9629527 C65.9438294,12.947 65.8319612,12.8341876 65.8316134,12.415589 C65.8300727,10.4774524 65.8309176,8.53936553 65.8308182,6.60122894" id="Fill-6"></path>
                <path d="M37.1156551,4.37030694 L37.1165496,4.37030694 C37.1165496,4.87488144 37.1188854,5.37950563 37.1154563,5.88408013 C37.1140151,6.09519335 37.1975559,6.21506271 37.420994,6.21093785 C38.230808,6.19612812 39.0436535,6.22013182 39.8497402,6.15711591 C40.8155533,6.08162604 41.4433269,5.25332473 41.3938286,4.21733931 C41.3492503,3.2834317 40.6498632,2.5999974 39.698661,2.58315009 C38.9543975,2.56998036 38.2097364,2.57743492 37.4652741,2.58036705 C37.1701231,2.58151008 37.1193327,2.63334414 37.1167484,2.93097998 C37.1126236,3.41070594 37.1156551,3.89053129 37.1156551,4.37030694 M34.5875147,6.60304785 C34.587465,4.69050525 34.5870177,2.77791296 34.5877632,0.865370362 C34.5880117,0.330977613 34.6590785,0.25653138 35.1847246,0.255785924 C36.5674465,0.253748343 37.9502679,0.242417408 39.3327414,0.259711994 C40.1978186,0.270496261 41.0479369,0.379382573 41.8347908,0.79296171 C43.1400847,1.47907966 43.7945457,2.59050525 43.9157071,4.02143341 C44.1405368,6.67764317 41.9408444,8.40894051 39.9361137,8.49814677 C39.1346488,8.53382928 38.3313949,8.52990321 37.528936,8.54222809 C37.1518346,8.54804264 37.1162017,8.57875544 37.1156551,8.95590662 C37.1139654,10.106742 37.1159533,11.2575774 37.1139654,12.4084625 C37.1132199,12.8489774 37.0141736,12.9547825 36.5775847,12.9617898 C36.0975109,12.9694929 35.6171389,12.9689462 35.1370154,12.9622371 C34.6953574,12.9560746 34.5883595,12.8415726 34.5880614,12.3904224 C34.5869183,10.461281 34.5875644,8.53218927 34.5875147,6.60304785" id="Fill-8"></path>
                <path d="M52.7371528,4.37117664 C52.7374509,4.37117664 52.7377988,4.37117664 52.738097,4.37117664 C52.738097,4.87575114 52.7404825,5.38037533 52.7370037,5.88494983 C52.7355128,6.09660971 52.8204451,6.21508756 53.0433365,6.2110124 C53.8532002,6.19610328 54.6660457,6.22010697 55.4721324,6.15699167 C56.4374983,6.0814521 57.0652222,5.25230594 57.0153263,4.21646961 C56.9703504,3.2826117 56.270864,2.59982346 55.3193139,2.58312524 C54.5750503,2.5700549 53.8303892,2.57741007 53.0858772,2.5803919 C52.791422,2.58153493 52.7408303,2.63356778 52.7382461,2.93184968 C52.7341709,3.41157563 52.7371528,3.89140098 52.7371528,4.37117664 M50.2091615,6.58557933 C50.2090124,4.67298703 50.2084657,2.76044443 50.20941,0.847852139 C50.2096584,0.334630348 50.2856453,0.256655623 50.7989168,0.25586047 C52.1898388,0.253723495 53.5809596,0.241994983 54.9717325,0.260035025 C55.8283114,0.271167172 56.6697825,0.382140761 57.4498279,0.789458065 C58.7482139,1.46752509 59.4066506,2.56980642 59.5349685,3.98935394 C59.7778878,6.67677348 57.5641312,8.40489019 55.5649666,8.49752556 C54.7718508,8.5343014 53.9768465,8.53042503 53.1826374,8.54185536 C52.7615043,8.5479184 52.7371528,8.56804572 52.7368049,8.99822368 C52.7357612,10.1325099 52.7373516,11.2667962 52.7355625,12.4010824 C52.7348667,12.8540714 52.636864,12.9561989 52.1815891,12.9623613 C51.7015152,12.9688716 51.2211432,12.9695177 50.7410694,12.9616656 C50.3242599,12.9548074 50.2103542,12.8364786 50.2100063,12.4226013 C50.2083663,10.4769107 50.2092609,8.53122018 50.2091615,6.58557933" id="Fill-10"></path>
                <path d="M3.43843194,7.68272198 C3.43828285,6.12571232 3.43887921,4.56870267 3.43788527,3.01174271 C3.43763679,2.61506058 3.40528398,2.58211142 3.01700066,2.58136596 C2.18884845,2.57967626 1.36064654,2.58260839 0.532444623,2.57937808 C0.0898423892,2.57763868 0.0105755396,2.49613546 0.00893553578,2.05557081 C0.00719613783,1.60009703 0.00421431276,1.14447416 0.0122155434,0.68914947 C0.0177319197,0.376952385 0.12000852,0.280589739 0.434789852,0.259716963 C0.517287012,0.254250284 0.600330841,0.255045437 0.683126183,0.255045437 C3.3913191,0.254796952 6.09946232,0.254747255 8.80765524,0.255144832 C8.90695002,0.255194529 9.00659267,0.255890288 9.10553957,0.263643033 C9.32107582,0.280490345 9.44039852,0.397526978 9.44159125,0.616343241 C9.44447368,1.14631295 9.44984097,1.67648145 9.44039852,2.20630206 C9.43547851,2.48366149 9.3282322,2.57575019 9.02468241,2.57763868 C8.17993137,2.58275748 7.33518033,2.57982535 6.49042929,2.58091869 C6.02849489,2.58151505 6.01194576,2.59736842 6.01189606,3.05373675 C6.01144879,6.06006248 6.01164758,9.06638821 6.01159788,12.0727139 C6.01159788,12.1306607 6.01169727,12.1886572 6.01154818,12.2466537 C6.00970939,12.8837207 5.93084012,12.9636336 5.29834532,12.9649754 C4.89256863,12.9658699 4.48674224,12.9668639 4.08091585,12.9644784 C3.53727944,12.9612481 3.43937618,12.8650346 3.43897861,12.3288527 C3.43783557,10.7801425 3.43858103,9.23143222 3.43843194,7.68272198" id="Fill-12"></path>
            </g>
        </g>
    </g>
</svg>