<?xml version="1.0" encoding="UTF-8"?>
<svg width="131px" height="42px" viewBox="0 0 131 42" version="1.1" xmlns="http://www.w3.org/2000/svg" xmlns:xlink="http://www.w3.org/1999/xlink">
    <!-- Generator: Sketch 45.2 (43514) - http://www.bohemiancoding.com/sketch -->
    <title>Group 2</title>
    <desc>Created with Sketch.</desc>
    <defs>
        <linearGradient x1="3.12335507%" y1="32.9104173%" x2="98.199084%" y2="67.4944621%" id="linearGradient-1">
            <stop stop-color="#B52A72" offset="0%"></stop>
            <stop stop-color="#CE3C4B" offset="31%"></stop>
            <stop stop-color="#E55A26" offset="68%"></stop>
            <stop stop-color="#F5891F" offset="100%"></stop>
        </linearGradient>
    </defs>
    <g id="Page-1" stroke="none" stroke-width="1" fill="none" fill-rule="evenodd">
        <g id="Group-2">
            <rect id="Rectangle" fill="#FFFFFF" x="0" y="0" width="130.865306" height="41.2315347" rx="7"></rect>
            <g id="Group-3" transform="translate(12.000000, 12.000000)" fill-rule="nonzero">
                <path d="M16.8707313,11.1901256 C16.8497355,11.405858 16.8129706,11.6197633 16.7607313,11.8301256 C16.6098938,12.3820206 16.4055936,12.9178901 16.1507313,13.4301256 L16.1507313,13.5201256 C16.1507313,13.3701256 16.2207313,13.2601256 16.2407313,13.1801256 C16.3869055,12.8568037 16.5072807,12.522428 16.6007313,12.1801256 C16.7090398,11.8553938 16.7991793,11.524882 16.8707313,11.1901256 Z M16.1107313,9.45012563 C16.1107313,9.55012563 16.1107313,9.64012563 16.1107313,9.73012563 L16.1107313,9.66012563 C16.1207313,9.59012563 16.1207313,9.51012563 16.1207313,9.44012563 L16.1107313,9.45012563 Z M8.62073132,2.76012563 C8.95564608,2.76054491 9.29000955,2.78729399 9.62073132,2.84012563 C10.521612,2.97503266 11.3857289,3.29142191 12.1607313,3.77012563 C11.6266638,3.39614826 11.0403537,3.10299325 10.4207313,2.90012563 C9.83512918,2.73947381 9.22484683,2.68861694 8.62073132,2.75012563 L8.62073132,2.76012563 Z M6.95073132,3.00012563 C7.50211662,2.88691018 8.05977851,2.80676715 8.62073132,2.76012563 C8.10535512,2.75849617 7.59165764,2.81893117 7.09073132,2.94012563 L6.95073132,3.00012563 Z M10.7507313,2.90012563 C10.2727443,2.74420838 9.77349566,2.66324913 9.27073132,2.66012563 C10.2185024,2.75354018 11.1372439,3.03937087 11.9707313,3.50012563 C11.5854274,3.25933644 11.1766631,3.0583048 10.7507313,2.90012563 Z M12.7507313,16.4601256 C12.5607313,16.5701256 12.3607313,16.6801256 12.1507313,16.7801256 C12.3382867,16.6867567 12.5187674,16.5798052 12.6907313,16.4601256 L12.7507313,16.4601256 Z M16.2507313,13.1601256 C16.3907313,12.4401256 15.9307313,13.8101256 16.2507313,13.1601256 L16.2507313,13.1601256 Z M9.48073132,0.160125629 C9.94332137,0.12301018 10.4081413,0.12301018 10.8707313,0.160125629 C10.5002689,0.0985228366 10.1261,0.0617741095 9.75073132,0.0501256289 C9.08573971,-0.016708543 8.41572293,-0.016708543 7.75073132,0.0501256289 C8.31104871,0.053684614 8.86993119,0.10723024 9.42073132,0.210125629 L9.48073132,0.160125629 Z M16.7507313,5.56012563 C16.6907313,5.35012563 16.5807313,5.15012563 16.5007313,4.95012563 C15.8326607,3.62253086 14.7895256,2.5202848 13.5007313,1.78012563 L13.7507313,1.96012563 C14.0415402,2.17256142 14.3187501,2.40301306 14.5807313,2.65012563 C14.317003,2.41742727 14.039861,2.20038835 13.7507313,2.00012563 L13.9107313,2.14012563 C14.3353708,2.48725545 14.7209739,2.87956474 15.0607313,3.31012563 L14.7507313,2.90012563 L15.0307313,3.26012563 C15.7022921,4.00283692 16.2584958,4.84219883 16.6807313,5.75012563 C17.0007313,6.49012563 17.0807313,6.66012563 17.1207313,6.54012563 C17.1271401,6.25521951 17.0725885,5.97223349 16.9607313,5.71012563 C16.819917,5.36791825 16.6596555,5.03404028 16.4807313,4.71012563 C16.5607313,4.99012563 16.6607313,5.27012563 16.7507313,5.56012563 Z M9.96073132,0.370125629 L9.96073132,0.370125629 C10.9424091,0.42807624 11.9035104,0.675992846 12.7907313,1.10012563 C11.7455045,0.578137635 10.5986317,0.291419421 9.43073132,0.260125629 C9.64073132,0.300125629 9.80073132,0.340125629 9.96073132,0.360125629 L9.96073132,0.370125629 Z M9.29073132,0.230125629 L9.40073132,0.230125629 L9.15073132,0.230125629 L9.29073132,0.230125629 Z M11.0807313,15.3601256 C11.8785312,15.0425044 12.5908776,14.542492 13.1607313,13.9001256 C12.8345156,14.2316005 12.4760777,14.5297404 12.0907313,14.7901256 C12.0907313,14.7901256 12.0907313,14.7901256 12.0107313,14.7901256 L12.0907313,14.7901256 C12.0907313,14.7901256 12.0907313,14.7901256 12.0907313,14.7901256 C11.8021492,14.9993008 11.4940546,15.180139 11.1707313,15.3301256 L11.0807313,15.3601256 Z M14.3807313,6.11012563 C13.9692779,5.36893263 13.4153198,4.71641752 12.7507313,4.19012563 C12.5607313,4.04012563 12.3507313,3.90012563 12.1507313,3.77012563 C12.9661746,4.31995518 13.6492951,5.04406297 14.1507313,5.89012563 C14.993593,7.29123404 15.2958536,8.95188952 15.0007313,10.5601256 C15.0007313,10.7401256 14.9307313,10.9301256 14.8707313,11.1001256 C14.9432346,10.883728 15.0033323,10.6633699 15.0507313,10.4401256 C15.1571226,9.62357657 15.1571226,8.79667468 15.0507313,7.98012563 C15.0507313,7.75012563 15.0007313,7.53012563 14.9707313,7.31012563 C14.9089117,7.08645366 14.8354788,6.86615498 14.7507313,6.65012563 C14.2407661,5.34480779 13.2982656,4.2540488 12.0807313,3.56012563 L11.9507313,3.50012563 C12.9808514,4.13433069 13.8231419,5.03185331 14.3907313,6.10012563 L14.3807313,6.11012563 Z M14.8707313,6.11012563 C14.8007313,5.98012563 14.7207313,5.85012563 14.6407313,5.72012563 C14.6407313,5.80012563 14.7207313,5.89012563 14.7607313,5.97012563 C14.8007313,6.05012563 14.9507313,6.37012563 15.0207313,6.57012563 C14.9807313,6.41012563 14.9307313,6.26012563 14.8807313,6.10012563 L14.8707313,6.11012563 Z M15.2807313,7.82012563 C15.2312757,7.43513902 15.1544138,7.05417173 15.0507313,6.68012563 C15.0007313,6.54012563 14.9407313,6.40012563 14.8707313,6.26012563 C15.0449319,6.72973648 15.1722192,7.21543781 15.2507313,7.71012563 L15.2807313,7.82012563 Z M12.3607313,14.1401256 C12.2407313,14.2001256 12.1107313,14.2801256 11.9907313,14.3301256 C12.9996992,13.9142403 13.8700369,13.2207441 14.5007313,12.3301256 C14.0892964,13.1143519 13.5327861,13.8133831 12.8607313,14.3901256 C12.6507313,14.5901256 12.4207313,14.7501256 12.2807313,14.8801256 L12.0107313,15.1901256 C12.3292323,14.9973757 12.627417,14.7728996 12.9007313,14.5201256 C12.9007313,14.5201256 12.9007313,14.5201256 12.9007313,14.5201256 C13.2676731,14.2221863 13.602792,13.8870675 13.9007313,13.5201256 C13.3823557,14.2642219 12.6975421,14.8771301 11.9007313,15.3101256 L11.8107313,15.4201256 C12.6566958,14.9856915 13.399981,14.3753793 13.9907313,13.6301256 L14.0707313,13.5101256 C14.4809589,12.7731504 14.7744446,11.9770282 14.9407313,11.1501256 C14.4536987,12.4128604 13.545974,13.4689293 12.3707313,14.1401256 L12.3607313,14.1401256 Z M15.2607313,7.74012563 C15.2607313,7.93012563 15.3107313,8.13012563 15.3307313,8.32012563 C15.3307313,8.16012563 15.3307313,8.01012563 15.3307313,7.85012563 L15.2607313,7.74012563 Z M11.0507313,15.4601256 L10.9607313,15.4601256 C11.0507313,15.4801256 11.0607313,15.4701256 11.0507313,15.4601256 Z M5.62073132,1.15012563 C5.94073132,1.04012563 6.23073132,0.950125629 6.52073132,0.860125629 L6.03073132,0.980125629 L5.62073132,1.15012563 Z M9.26073132,2.66012563 C8.72158982,2.61517678 8.1787492,2.65226527 7.65073132,2.77012563 C8.18425901,2.69676199 8.72218327,2.6600094 9.26073132,2.66012563 Z M17.1507313,11.0401256 C16.9962124,11.7706416 16.7439417,12.4769995 16.4007313,13.1401256 C16.8364966,12.1585626 17.1035764,11.1105281 17.1907313,10.0401256 C17.3235649,9.0847416 17.2450504,8.1118447 16.9607313,7.19012563 C16.9007313,7.00012563 16.8407313,6.82012563 16.7807313,6.65012563 C17.136924,7.74262848 17.2762004,8.89420647 17.1907313,10.0401256 C17.1112575,10.6741226 16.9637404,11.2977177 16.7507313,11.9001256 L16.7507313,11.9001256 C16.8864729,11.4288292 16.9834625,10.9472256 17.0407313,10.4601256 C17.0963259,10.1293951 17.1297339,9.7953159 17.1407313,9.46012563 C17.1407313,9.55012563 17.1407313,9.64012563 17.1407313,9.73012563 C17.1359937,9.96083486 17.1193047,10.1911436 17.0907313,10.4201256 C17.0907313,10.6901256 16.9907313,10.9601256 16.9107313,11.2201256 L16.9107313,11.1001256 C16.9166426,11.03359 16.9166426,10.9666613 16.9107313,10.9001256 C16.6116714,12.3876015 15.9212761,13.7683921 14.9107313,14.9001256 C15.3376417,14.4230611 15.7099484,13.8998193 16.0207313,13.3401256 C15.5762297,14.1421438 14.9861564,14.8543012 14.2807313,15.4401256 C14.5370645,15.1900803 14.7681774,14.9154243 14.9707313,14.6201256 C15.9247933,13.5110693 16.5941149,12.1861558 16.9207313,10.7601256 C16.9207313,10.5301256 16.8407313,10.3201256 16.7707313,10.5401256 C16.6117578,11.4684211 16.3080619,12.3660111 15.8707313,13.2001256 C15.6463419,13.6415197 15.3747548,14.0572828 15.0607313,14.4401256 C15.0007313,14.4401256 15.4507313,13.8701256 15.7707313,13.2101256 C15.9884725,12.7946957 16.1659486,12.3593771 16.3007313,11.9101256 L16.0907313,12.3701256 L16.1807313,11.9001256 C16.2950264,11.5745936 16.381994,11.2401027 16.4407313,10.9001256 C16.5223421,10.2902164 16.5624344,9.67546839 16.5607313,9.06012563 C16.5728661,9.28329413 16.5728661,9.50695713 16.5607313,9.73012563 C16.5607313,9.73012563 16.5607313,9.73012563 16.5607313,9.78012563 C16.4851759,10.9453146 16.1792744,12.0839482 15.6607313,13.1301256 L15.6607313,13.1301256 C14.6141476,15.0102608 12.837352,16.3745213 10.7507313,16.9001256 C10.6707313,16.9001256 10.5807313,16.9001256 10.6207313,16.9001256 C12.4970452,16.3606203 14.1049897,15.1412921 15.1307313,13.4801256 C15.3123083,13.1575857 15.4726488,12.8235429 15.6107313,12.4801256 C15.7971215,12.0440565 15.944368,11.5922776 16.0507313,11.1301256 L16.0507313,11.1301256 L16.0507313,11.1301256 C16.0507313,11.2001256 16.0507313,11.2601256 15.9807313,11.3301256 L15.9307313,11.5201256 L15.9307313,11.5201256 C15.8438547,11.8431177 15.7369819,12.1603964 15.6107313,12.4701256 C14.7087377,14.5450455 12.9259389,16.1077457 10.7507313,16.7301256 C10.7507313,16.7301256 10.8507313,16.7301256 10.8907313,16.6701256 C11.8571588,16.3708202 12.7405259,15.8503869 13.4707313,15.1501256 C13.0578197,15.5032693 12.6086446,15.8116582 12.1307313,16.0701256 C12.1307313,16.0701256 12.1307313,16.0701256 12.1307313,16.0701256 C11.7739334,16.2890518 11.3952041,16.4700375 11.0007313,16.6101256 C11.1207313,16.5201256 11.1907313,16.5201256 11.3207313,16.4301256 L12.1207313,15.9301256 L12.2007313,15.9301256 C11.6826289,16.1811287 11.1349906,16.3659147 10.5707313,16.4801256 L10.7507313,16.3001256 C11.1261415,16.2023433 11.4911835,16.0683829 11.8407313,15.9001256 C11.8407313,15.9001256 11.8407313,15.9001256 11.8407313,15.9001256 L11.7407313,15.9001256 C11.8407313,15.9001256 11.8407313,15.9001256 11.8407313,15.9001256 C12.152866,15.7838993 12.4568777,15.6469269 12.7507313,15.4901256 C13.6645748,14.8726284 14.4297008,14.0596821 14.9907313,13.1101256 C15.6265375,12.08733 16.01357,10.9296575 16.1207313,9.73012563 C16.0966822,10.1841921 16.0364918,10.6356206 15.9407313,11.0801256 C16.0477186,10.6037918 16.1080039,10.1181607 16.1207313,9.63012563 C16.1207313,9.44012563 16.1207313,9.25012563 16.1207313,9.06012563 C16.0985423,8.95388983 16.0579295,8.85235778 16.0007313,8.76012563 C16.0508859,10.1610415 15.7042399,11.5476256 15.0007313,12.7601256 L15.0907313,12.5901256 C15.0907313,12.5901256 15.3407313,12.0101256 15.5007313,11.3901256 C15.6224576,10.9820659 15.706148,10.5636139 15.7507313,10.1401256 L15.6507313,10.5801256 C15.6507313,10.5801256 15.6507313,10.5001256 15.6507313,10.4601256 C15.597398,10.6867923 15.5307313,10.9167923 15.4507313,11.1501256 L15.4507313,11.3601256 L15.4507313,11.3601256 C15.2114539,12.051101 14.874721,12.7043628 14.4507313,13.3001256 C14.3007313,13.5401256 14.1507313,13.7701256 13.9807313,13.9901256 C14.0706906,13.8644941 14.154134,13.7343225 14.2307313,13.6001256 C13.5953021,14.446511 12.7697504,15.1316161 11.8207313,15.6001256 C11.7973199,15.5979593 11.7760467,15.5856042 11.7625638,15.5663429 C11.7490809,15.5470816 11.7447535,15.5228644 11.7507313,15.5001256 C12.5532162,15.0774324 13.2690019,14.5075177 13.8607313,13.8201256 L13.7507313,14.0301256 L13.9507313,13.7501256 C14.3647813,13.2532848 14.7018734,12.6970829 14.9507313,12.1001256 C14.9507313,11.9601256 15.0407313,11.8301256 15.0807313,11.6901256 C14.8643185,12.2778186 14.5682187,12.8330058 14.2007313,13.3401256 C15.0472058,12.0456559 15.5433684,10.5537225 15.6407313,9.01012563 C15.653044,8.64240875 15.6329665,8.27432171 15.5807313,7.91012563 C15.5807313,7.78012563 15.5807313,7.65012563 15.5307313,7.52012563 L15.4807313,7.33012563 L15.4807313,7.57012563 C15.2586232,6.52630822 14.8115719,5.54347789 14.1707313,4.69012563 L14.0807313,4.56012563 C14.3764004,5.00821193 14.621243,5.48783516 14.8107313,5.99012563 L14.6107313,5.69012563 L14.6107313,5.63012563 C14.4891051,5.39677288 14.3555965,5.16980839 14.2107313,4.95012563 C14.3155059,5.12740591 14.4090239,5.31110204 14.4907313,5.50012563 C14.4907313,5.44012563 14.3907313,5.35012563 14.4007313,5.41012563 C14.1796136,4.99656204 13.8686684,4.63777907 13.4907313,4.36012563 L13.4907313,4.36012563 L13.3807313,4.26012563 C12.8398235,3.71286644 12.1839975,3.29272785 11.4607313,3.03012563 C11.209602,2.9135374 10.9525895,2.81006482 10.6907313,2.72012563 C10.8707313,2.78012563 11.1207313,2.90012563 11.2907313,2.96012563 L11.4607313,3.03012563 C12.0895871,3.3131183 12.6753622,3.68343593 13.2007313,4.13012563 L13.3907313,4.27012563 L13.4907313,4.38012563 L13.4907313,4.38012563 C13.6883347,4.56298885 13.8721677,4.76019152 14.0407313,4.97012563 L14.0407313,4.97012563 L14.0407313,5.05012563 C14.2207313,5.28012563 14.3807313,5.51012563 14.5207313,5.73012563 C14.6331884,6.02975022 14.7234323,6.33724811 14.7907313,6.65012563 C14.3135645,5.41520994 13.4554091,4.36440742 12.3407313,3.65012563 C11.5704346,3.16257437 10.7157375,2.82340886 9.82073132,2.65012563 C8.93685418,2.47738614 8.02313123,2.53945034 7.17073132,2.83012563 L7.60073132,2.77012563 C7.41364991,2.81386743 7.22986587,2.8706734 7.05073132,2.94012563 C5.42744763,3.34226653 4.02696041,4.36569949 3.15073132,5.79012563 C2.96791063,6.22741244 2.83376983,6.68349112 2.75073132,7.15012563 C2.97509131,6.45901793 3.31305359,5.81013034 3.75073132,5.23012563 C3.64979494,5.37525905 3.55633978,5.52545484 3.47073132,5.68012563 C3.34865684,5.90610315 3.24175404,6.13995302 3.15073132,6.38012563 C3.64498993,5.29040483 4.4663537,4.38166193 5.50073132,3.78012563 C5.3626268,3.86645047 5.22911259,3.95991042 5.10073132,4.06012563 C3.58479637,5.26453087 2.74321355,7.12643976 2.84073132,9.06012563 C2.89202433,9.44826448 2.98248568,9.83021241 3.11073132,10.2001256 C3.41825007,11.1384765 3.92673392,11.9984626 4.60073132,12.7201256 C4.42073132,12.5401256 4.25073132,12.3601256 4.09073132,12.1601256 C3.54842386,11.4944656 3.14697494,10.7255889 2.91073132,9.90012563 C3.2373494,11.0816493 3.87239768,12.1550189 4.75073132,13.0101256 C4.75073132,13.0101256 4.49073132,12.8701256 4.45073132,12.8401256 C3.94730634,12.3881572 3.51568648,11.8621205 3.17073132,11.2801256 C3.38694359,11.7363253 3.65540887,12.1658698 3.97073132,12.5601256 C3.82073132,12.3901256 3.68073132,12.2101256 3.54073132,12.0201256 C3.18613366,11.4860539 2.91941837,10.898605 2.75073132,10.2801256 L2.75073132,10.1601256 C2.97960878,11.1706275 3.44965629,12.1107225 4.12073132,12.9001256 L4.02073132,12.8001256 C3.10485224,11.8464347 2.54364871,10.6075514 2.43073132,9.29012563 C2.3457362,8.26412264 2.51757281,7.23310301 2.93073132,6.29012563 C2.73084806,6.6822799 2.57329309,7.09460461 2.46073132,7.52012563 C2.3967314,7.82655425 2.35661093,8.13748794 2.34073132,8.45012563 C2.3113834,8.78281299 2.3113834,9.11743827 2.34073132,9.45012563 L2.34073132,9.45012563 C2.42992906,10.8520329 3.01891213,12.1754708 4.00073132,13.1801256 C4.45409298,13.6682252 4.98033323,14.0831454 5.56073132,14.4101256 C5.67944377,14.4895222 5.79300473,14.5763629 5.90073132,14.6701256 L6.15073132,14.8101256 C6.19753471,14.7879946 6.22830394,14.7418407 6.23073132,14.6901256 L6.50073132,14.6901256 C6.42073132,14.5001256 5.75073132,14.2601256 5.75073132,14.1601256 C6.08242098,14.2589536 6.40129186,14.3965716 6.70073132,14.5701256 C6.88436629,14.6504215 7.08068748,14.6978094 7.28073132,14.7101256 C7.28073132,14.7101256 7.28073132,14.6301256 7.28073132,14.6001256 C7.28073132,14.5701256 7.49073132,14.6901256 7.61073132,14.7001256 C7.98569616,14.7768652 8.35118544,14.8942241 8.70073132,15.0501256 C8.99255011,15.187634 9.22885049,15.4204075 9.37073132,15.7101256 L9.37073132,15.7101256 C9.46195147,15.8181651 9.50205311,15.9603436 9.48073132,16.1001256 C9.5043904,16.2659527 9.5043904,16.4342986 9.48073132,16.6001256 C9.45613143,16.6506483 9.43927597,16.7045857 9.43073132,16.7601256 L9.43073132,16.7601256 C9.4194339,16.8644551 9.36948977,16.9607759 9.29073132,17.0301256 L9.15073132,17.1501256 L9.15073132,17.1501256 C9.21073132,17.1501256 9.15073132,17.2401256 8.95073132,17.2601256 C8.88136526,17.2925499 8.80695441,17.3128438 8.73073132,17.3201256 C8.55073132,17.3201256 7.98073132,17.3201256 7.80073132,17.3201256 C7.62073132,17.3201256 7.41073132,17.2401256 7.22073132,17.2401256 C6.99711671,17.2125134 6.77629904,17.1656732 6.56073132,17.1001256 C6.31404755,17.033223 6.07324564,16.9462667 5.84073132,16.8401256 C5.71760755,16.7873805 5.60301905,16.7166053 5.50073132,16.6301256 L5.50073132,16.6301256 L3.16073132,15.6301256 C1.13130883,13.9899016 -0.0334374314,11.509287 0.000731320122,8.90012563 C-0.0179589723,6.70998078 0.740269609,4.58410626 2.14073132,2.90012563 C1.73523033,3.46782449 1.39948562,4.08223732 1.14073132,4.73012563 L1.11073132,4.90012563 C1.68206845,3.59067608 2.59364147,2.45811566 3.75073132,1.62012563 C2.94583041,2.21071685 2.26605032,2.95507604 1.75073132,3.81012563 C1.60742158,4.05640508 1.4772397,4.31009285 1.36073132,4.57012563 C1.90359965,3.5892517 2.65863621,2.74197086 3.57073132,2.09012563 L3.57073132,2.09012563 L3.89073132,1.90012563 C2.65184989,2.79684782 1.7306852,4.06476271 1.26073132,5.52012563 L1.21073132,5.69012563 C1.69893434,4.34699677 2.53801372,3.15916424 3.64073132,2.25012563 C2.8854799,2.89298728 2.26373103,3.67781782 1.81073132,4.56012563 C1.68358956,4.81729909 1.57009863,5.08099861 1.47073132,5.35012563 C1.92496185,4.2877211 2.60783568,3.33852648 3.47073132,2.57012563 C4.02484808,2.04754574 4.65543309,1.61254324 5.34073132,1.28012563 L6.00073132,1.09012563 C6.78268291,0.831797392 7.59765165,0.686988897 8.42073132,0.660125629 C7.79236921,0.655818619 7.16538601,0.719522794 6.55073132,0.850125629 L6.95073132,0.740125629 L6.64073132,0.740125629 C7.29161207,0.551217572 7.96340216,0.443731157 8.64073132,0.420125629 C8.86073132,0.420125629 9.08073132,0.420125629 9.30073132,0.420125629 C7.50415724,0.21961108 5.69383117,0.65097784 4.18073132,1.64012563 L3.98073132,1.77012563 L3.63073132,2.00012563 C4.88022994,0.949121963 6.41660291,0.297644083 8.04073132,0.130125629 C8.37376387,0.110099572 8.70769877,0.110099572 9.04073132,0.130125629 L8.84073132,0.130125629 L8.67073132,0.130125629 L9.23073132,0.130125629 L9.88073132,0.240125629 C9.61073132,0.240125629 9.35073132,0.240125629 9.09073132,0.240125629 C9.80945052,0.238890004 10.5230818,0.360647006 11.2007313,0.600125629 C10.3506659,0.414177726 9.47657969,0.363554974 8.61073132,0.450125629 L8.41073132,0.450125629 L8.24073132,0.450125629 L8.70073132,0.450125629 L9.16073132,0.450125629 C9.70527083,0.542957542 10.2383078,0.693817075 10.7507313,0.900125629 C10.3861109,0.801866084 10.0152656,0.72836522 9.64073132,0.680125629 C10.615792,0.776382429 11.5648754,1.05093872 12.4407313,1.49012563 C11.6995386,1.13540951 10.9060381,0.902424243 10.0907313,0.800125629 L9.99073132,0.800125629 L9.41073132,0.730125629 L9.72073132,0.730125629 L9.29073132,0.730125629 C9.00182096,0.698069099 8.71141198,0.681378928 8.42073132,0.680125629 C7.74414758,0.71119729 7.0732334,0.818543558 6.42073132,1.00012563 C6.82793745,0.899846098 7.24264654,0.832957534 7.66073132,0.800125629 C8.02266505,0.758574708 8.38645583,0.735211997 8.75073132,0.730125629 L8.68073132,0.730125629 C9.06685693,0.726468145 9.45230058,0.763336668 9.83073132,0.840125629 C9.36814299,0.802967283 8.90331965,0.802967283 8.44073132,0.840125629 C8.53073132,0.840125629 8.54073132,0.780125629 8.44073132,0.730125629 C7.46938955,0.786999828 6.51207276,0.989249853 5.60073132,1.33012563 L5.44073132,1.40012563 C6.27387852,1.10368528 7.14710958,0.935107859 8.03073132,0.900125629 L8.28073132,0.900125629 C9.61402909,0.854735157 10.9375109,1.14349483 12.1307313,1.74012563 C11.2342662,1.31222342 10.2626106,1.06421344 9.27073132,1.01012563 C8.9842568,0.995282152 8.69720584,0.995282152 8.41073132,1.01012563 C9.53458426,1.03399083 10.6386065,1.31085089 11.6407313,1.82012563 C12.985021,2.36446112 14.163898,3.25034236 15.0607313,4.39012563 L14.9807313,4.31012563 C15.2254189,4.6264924 15.4460375,4.96076299 15.6407313,5.31012563 L15.7507313,5.57012563 C15.8442354,5.76914055 15.927674,5.9727309 16.0007313,6.18012563 C16.0007313,6.05012563 15.9107313,5.92012563 15.8707313,5.79012563 C16.2539449,6.71388226 16.506379,7.68659531 16.6207313,8.68012563 L16.7507313,8.68012563 L16.7507313,8.57012563 C16.7433405,8.21560137 16.7166342,7.86174332 16.6707313,7.51012563 L16.6707313,7.57012563 L16.6707313,7.47012563 C16.6335187,7.22921954 16.5766625,6.99176108 16.5007313,6.76012563 L16.4107313,6.51012563 L16.4107313,6.61012563 C16.5066808,6.88871128 16.5868086,7.17249713 16.6507313,7.46012563 L16.6507313,7.46012563 C16.6107313,7.30012563 16.5607313,7.13345896 16.5007313,6.96012563 C16.5007313,7.07012563 16.5007313,7.19012563 16.5607313,7.30012563 C16.5607313,7.17012563 16.4807313,7.04012563 16.4407313,6.92012563 C16.4007313,6.80012563 16.3107313,6.44012563 16.2307313,6.21012563 C16.0608323,5.7811682 15.8568467,5.36650888 15.6207313,4.97012563 L15.6207313,4.97012563 C15.7810245,5.22563516 15.9278904,5.48932623 16.0607313,5.76012563 C16.0007313,5.60012563 15.9307313,5.45012563 15.8607313,5.30012563 C15.7907313,5.15012563 15.5707313,4.90012563 15.4407313,4.70012563 C15.1347886,4.10110554 14.7588253,3.54051733 14.3207313,3.03012563 C15.0470965,3.66244456 15.638835,4.43442531 16.0607313,5.30012563 C16.1407313,5.50012563 16.2507313,5.70012563 16.3107313,5.91012563 C16.0233225,4.99585183 15.594821,4.13210073 15.0407313,3.35012563 C15.4575942,3.82699765 15.8229521,4.34654316 16.1307313,4.90012563 C16.0007313,4.68012563 15.8607313,4.46012563 15.7307313,4.26012563 L15.7307313,4.26012563 L15.9207313,4.58012563 C17.1516291,6.49302048 17.5892147,8.81007212 17.1407313,11.0401256 L17.1507313,11.0401256 Z M0.29073132,9.53012563 L0.29073132,9.53012563 C0.287870524,9.49017678 0.287870524,9.45007448 0.29073132,9.41012563 C0.288825477,9.45010293 0.288825477,9.49014833 0.29073132,9.53012563 Z M0.86073132,6.00012563 C0.663774096,6.52257632 0.500112995,7.05697992 0.37073132,7.60012563 C0.279193605,8.00684 0.238880772,8.42340594 0.25073132,8.84012563 C0.237635981,8.88246961 0.237635981,8.92778165 0.25073132,8.97012563 C0.25073132,8.97012563 0.25073132,8.91012563 0.25073132,8.87012563 L0.25073132,8.94012563 C0.267234627,8.36034257 0.344320469,7.78387454 0.48073132,7.22012563 C0.48073132,7.15012563 0.48073132,7.08012563 0.48073132,7.01012563 C0.583209863,6.66484784 0.710199101,6.32732382 0.86073132,6.00012563 L0.86073132,6.00012563 Z M4.04073132,14.0001256 C4.42484866,14.3656297 4.86341024,14.6692492 5.34073132,14.9001256 L5.41073132,14.9001256 C4.91802021,14.6428674 4.45804857,14.3272664 4.04073132,13.9601256 L4.04073132,14.0001256 Z M3.75073132,14.8401256 C3.91518727,14.9219638 4.07539251,15.0120792 4.23073132,15.1101256 L4.23073132,15.1101256 L4.00073132,14.9001256 L3.75073132,14.8401256 Z M2.75073132,7.94012563 C2.77596171,7.72828851 2.81268249,7.51797858 2.86073132,7.31012563 C2.86073132,7.46012563 2.79073132,7.61012563 2.77073132,7.75012563 L2.75073132,7.94012563 Z M2.75073132,3.28012563 C3.01774194,3.02149469 3.30170551,2.78096085 3.60073132,2.56012563 L3.73073132,2.46012563 C4.3745584,1.98329898 5.09017716,1.61198736 5.85073132,1.36012563 C6.14616192,1.26657603 6.44664042,1.18978708 6.75073132,1.13012563 C5.74200785,1.33262541 4.78138231,1.72638004 3.92073132,2.29012563 L4.03073132,2.21012563 L3.75073132,2.36012563 L3.47073132,2.56012563 L3.23073132,2.78012563 C3.07305181,2.92967032 2.9260263,3.09006178 2.79073132,3.26012563 L2.75073132,3.28012563 Z M6.07073132,2.71012563 C5.28437359,3.06723444 4.56154567,3.55024561 3.93073132,4.14012563 C3.72383325,4.36187886 3.5301651,4.59561627 3.35073132,4.84012563 C3.13256854,5.12842243 2.9417437,5.43642042 2.78073132,5.76012563 L2.95073132,5.55012563 C2.68185372,6.0118285 2.46390948,6.50136478 2.30073132,7.01012563 C2.32054269,7.06849025 2.32054269,7.13176101 2.30073132,7.19012563 C2.06303576,7.98040068 1.99823479,8.81258153 2.11073132,9.63012563 C2.11073132,9.72012563 2.18073132,9.88012563 2.22073132,10.0501256 C2.26073132,10.2201256 2.31073132,10.4601256 2.37073132,10.6601256 L2.37073132,10.6601256 C2.37073132,10.4901256 2.29073132,10.3301256 2.25073132,10.1601256 C2.12440221,9.62320107 2.07723695,9.07069365 2.11073132,8.52012563 C2.18895619,7.24953069 2.6296893,6.0279712 3.38073132,5.00012563 C3.53363667,4.77638991 3.70064162,4.56262358 3.88073132,4.36012563 C4.43301286,3.78872797 5.06243252,3.29730941 5.75073132,2.90012563 C5.85073132,2.90012563 6.02073132,2.78012563 6.10073132,2.72012563 L6.07073132,2.71012563 Z M9.06073132,1.02012563 C7.44952337,0.844355144 5.82724728,1.2331359 4.47073132,2.12012563 C3.22666098,2.93249696 2.29846051,4.14656905 1.84073132,5.56012563 L1.84073132,5.71012563 C2.2803918,4.50496186 3.03279603,3.43848063 4.02073132,2.62012563 C3.34338459,3.19961806 2.78621137,3.90627678 2.38073132,4.70012563 C2.26848182,4.93142758 2.16834639,5.16841476 2.08073132,5.41012563 C3.19291843,2.81603723 5.70949877,1.10320193 8.53073132,1.02012563 C8.69073132,1.06012563 8.89073132,1.04012563 9.08073132,1.07012563 L9.06073132,1.02012563 Z M13.7707313,4.02012563 C14.0107313,4.26012563 14.2507313,4.50012563 14.4707313,4.76012563 C14.6907313,5.02012563 14.8307313,5.22012563 14.9907313,5.46012563 C14.7103218,5.02598039 14.3960081,4.61469753 14.0507313,4.23012563 C14.4143564,4.61808611 14.7486123,5.03256349 15.0507313,5.47012563 L15.0507313,5.40012563 C14.2740287,4.21689297 13.2066444,3.25280393 11.9507313,2.60012563 L11.9507313,2.60012563 C12.7374704,3.03802135 13.4469192,3.602202 14.0507313,4.27012563 C13.7098927,3.91307424 13.3457611,3.57900859 12.9607313,3.27012563 C12.7725949,3.12851593 12.5717354,3.0046526 12.3607313,2.90012563 C12.8602321,3.24875443 13.3256381,3.64384724 13.7507313,4.08012563 C13.1986454,3.56371311 12.5877904,3.11396266 11.9307313,2.74012563 L11.9307313,2.74012563 C12.8287729,3.2670879 13.6302818,3.94346672 14.3007313,4.74012563 C14.4944014,4.97064848 14.6715107,5.21459146 14.8307313,5.47012563 L14.7707313,5.37012563 C14.4671337,4.91255421 14.1259545,4.48106287 13.7507313,4.08012563 L13.7707313,4.02012563 Z M15.2707313,6.52012563 C15.2707313,6.40012563 15.2007313,6.29012563 15.1607313,6.17012563 C15.0414042,5.88846092 14.9044668,5.61458616 14.7507313,5.35012563 C14.8007313,5.44012563 14.8507313,5.53012563 14.9007313,5.63012563 L15.0207313,5.90012563 C15.1207313,6.16012563 15.2107313,6.37012563 15.3007313,6.57012563 L15.2707313,6.52012563 Z M15.8407313,11.3301256 C15.8392304,11.3001444 15.8392304,11.2701069 15.8407313,11.2401256 C15.7024286,11.8074304 15.5011805,12.3575086 15.2407313,12.8801256 C15.5050626,12.4082244 15.716349,11.9085153 15.8707313,11.3901256 L15.8407313,11.3301256 Z M15.9107313,11.4301256 L15.9107313,11.4301256 C15.8704757,11.590944 15.8169592,11.7481489 15.7507313,11.9001256 C15.8048121,11.7831424 15.851569,11.6629105 15.8907313,11.5401256 C15.9006738,11.5180617 15.9141887,11.4977894 15.9307313,11.4801256 L15.9107313,11.4301256 Z M15.9007313,6.67012563 C15.8290632,6.4687176 15.7455851,6.27170925 15.6507313,6.08012563 C15.7507313,6.34012563 15.8507313,6.54012563 15.9207313,6.73012563 L15.9007313,6.67012563 Z M16.2207313,9.67012563 C16.2207313,9.73012563 16.2207313,9.80012563 16.2207313,9.86012563 C16.2207313,10.1101256 16.2207313,10.3601256 16.1407313,10.6001256 C16.1407313,10.5201256 16.1407313,10.4301256 16.1907313,10.3501256 C16.2407313,10.2701256 16.2307313,9.90012563 16.2407313,9.71012563 L16.2207313,9.67012563 Z M16.5507313,8.90012563 C16.5405243,8.71585592 16.5204959,8.53226179 16.4907313,8.35012563 C16.3748948,7.73356572 16.1869367,7.13277125 15.9307313,6.56012563 C15.9229473,6.54088302 15.9229473,6.51936824 15.9307313,6.50012563 C16.0007313,6.70012563 16.0707313,6.91012563 16.1407313,7.12012563 C16.1407313,6.93012563 16.0407313,6.74012563 15.9707313,6.55012563 C16.361433,7.5229631 16.5617249,8.56176521 16.5607313,9.61012563 C16.5695858,9.37344419 16.5662481,9.13646381 16.5507313,8.90012563 L16.5507313,8.90012563 Z M16.9507313,7.55012563 C16.9507313,7.78012563 17.0207313,8.00012563 17.0407313,8.23012563 C17.0607313,8.46012563 17.1007313,8.80012563 17.1107313,9.08012563 C17.1107313,9.08012563 17.1107313,9.08012563 17.1107313,9.15012563 C17.1107313,8.86012563 17.1107313,8.57012563 17.1107313,8.28012563 C17.1107313,7.99012563 17.1107313,7.97012563 17.0307313,7.82012563 L16.9507313,7.55012563 Z" id="Shape" fill="url(#linearGradient-1)"></path>
                <g id="Group" transform="translate(21.000000, 3.000000)" fill="#000000">
                    <path d="M40.57,0.44 L45.09,0.44 C46.84,0.44 48.64,1.24 48.64,3.35 C48.6522103,4.56116994 47.8202424,5.6177692 46.64,5.89 L46.64,5.89 C48.081402,6.02084859 49.1769027,7.24292106 49.15,8.69 C49.15,11.21 46.95,12 44.76,12 L40.57,12 L40.57,0.44 Z M42.63,5.16 L44.51,5.16 C45.88,5.16 46.57,4.57 46.57,3.7 C46.57,2.83 45.88,2.21 44.33,2.21 L42.63,2.21 L42.63,5.16 Z M42.63,10.27 L44.53,10.27 C45.6,10.27 47.07,10.09 47.07,8.57 C47.07,7.36 46.28,6.93 44.61,6.93 L42.61,6.93 L42.61,10.27 L42.63,10.27 Z" id="Shape"></path>
                    <path d="M56,0.15 C57.6527616,0.029398286 59.2773961,0.626478541 60.4587163,1.7886525 C61.6400364,2.95082645 62.2635815,4.56548856 62.17,6.22 C62.2274431,7.86795525 61.5937911,9.46497329 60.42212,10.6252505 C59.2504489,11.7855276 57.6473152,12.4035438 56,12.33 C54.37255,12.4179124 52.7830068,11.8182138 51.6191946,10.6772215 C50.4553825,9.53622917 49.8243284,7.95887164 49.88,6.33 C49.7780838,4.67238829 50.3879395,3.04998706 51.556519,1.86995088 C52.7250985,0.689914697 54.3414729,0.0642600576 56,0.15 L56,0.15 Z M56,10.47 C57.1168276,10.4733594 58.1842013,10.0096502 58.9439327,9.19103964 C59.7036641,8.37242903 60.0865596,7.27347322 60,6.16 C60,3.950861 58.209139,2.16 56,2.16 C53.790861,2.16 52,3.950861 52,6.16 C51.9126288,7.28222589 52.3021405,8.38932667 53.0729488,9.20961889 C53.843757,10.0299111 54.9245136,10.4874663 56.05,10.47 L56,10.47 Z" id="Shape"></path>
                    <path d="M63.52,0.44 L68.09,0.44 C71.09,0.44 73.99,2.31 73.99,6.24 C73.99,10.17 70.63,12.04 67.85,12.04 L63.53,12.04 L63.53,0.44 L63.52,0.44 Z M67.12,10.17 C69.71,10.17 71.82,9.05 71.82,6.24 C71.82,3.43 69.98,2.31 67.46,2.31 L65.58,2.31 L65.58,10.17 L67.12,10.17 L67.12,10.17 Z" id="Shape"></path>
                    <polygon id="Shape" points="77.8 7.08 73.44 0.45 76 0.45 78.85 5.07 81.73 0.45 84.19 0.45 79.83 7.08 79.83 12.08 77.8 12.08"></polygon>
                    <polygon id="Shape" points="0 0.44 2 0.44 6 9.53 6 9.53 10 0.44 12 0.44 12 12 10.6 12 10.6 2.31 10.6 2.31 6.41 12 5.58 12 1.42 2.27 1.42 2.27 1.42 12 0 12"></polygon>
                    <polygon id="Shape" points="13.88 0.44 15.26 0.44 15.26 12 13.88 12"></polygon>
                    <polygon id="Shape" points="17.16 0.44 18.9 0.44 25.62 10.07 25.62 10.07 25.62 0.44 27 0.44 27 12 25.28 12 18.56 2.37 18.56 2.37 18.56 12 17.16 12"></polygon>
                    <path d="M29,0.44 L33.45,0.44 C34.9878611,0.405349669 36.4713566,1.00936629 37.5476361,2.108384 C38.6239155,3.20740171 39.1967897,4.70319928 39.13,6.24 C39.1850973,7.7646955 38.6112344,9.2450425 37.5428584,10.3342187 C36.4744824,11.423395 35.0054744,12.0256916 33.48,12 L29,12 L29,0.44 Z M30.4,10.76 L33,10.76 C35.65,10.76 37.67,9.42 37.67,6.24 C37.67,3.06 35.67,1.72 33,1.72 L30.4,1.72 L30.4,10.72 L30.4,10.76 Z" id="Shape"></path>
                    <path d="M81.85,10.54 C81.9367333,10.3374808 82.0624527,10.1539984 82.22,10 C82.3755245,9.8468203 82.5587862,9.72464581 82.76,9.64 C83.6188554,9.27792583 84.6091039,9.67491733 84.98,10.53 C85.0735603,10.7409076 85.1212789,10.9692752 85.12,11.2 C85.1214844,11.4339713 85.0737872,11.6656435 84.98,11.88 C84.8923719,12.0820259 84.7667643,12.2653452 84.61,12.42 C84.4556077,12.5745657 84.2720577,12.6969324 84.07,12.78 C83.6464602,12.9502055 83.1735398,12.9502055 82.75,12.78 C82.5481902,12.6964671 82.3647264,12.5741579 82.21,12.42 C82.0528488,12.2656692 81.9271862,12.0822698 81.84,11.88 C81.7462128,11.6656435 81.6985156,11.4339713 81.7,11.2 C81.7032704,10.9719281 81.7543719,10.7470815 81.85,10.54 L81.85,10.54 Z M82.13,11.79 C82.1959035,11.9606977 82.2944016,12.1169361 82.42,12.25 C82.5445501,12.3816139 82.694146,12.487011 82.86,12.56 C83.0369629,12.6352859 83.2277079,12.6727537 83.42,12.67 C83.6090126,12.672243 83.7963895,12.6347676 83.97,12.56 C84.135722,12.4867774 84.2852744,12.381411 84.41,12.25 C84.5353974,12.1167803 84.6338693,11.9605835 84.7,11.79 C84.7737262,11.6055693 84.8110791,11.4086179 84.81,11.21 C84.8108,11.0146498 84.7734337,10.8210244 84.7,10.64 C84.5644365,10.2981961 84.298068,10.0246285 83.96,9.88 C83.7863895,9.80523242 83.5990126,9.76775703 83.41,9.77 C82.8382788,9.76268614 82.3212588,10.1086918 82.11,10.64 C82.0365663,10.8210244 81.9992,11.0146498 82,11.21 C82.0065397,11.4065579 82.0506681,11.6000439 82.13,11.78 L82.13,11.79 Z M83.53,10.23 C83.7142274,10.2159956 83.8977063,10.2653938 84.05,10.37 C84.1707811,10.4788697 84.2336815,10.6379707 84.22,10.8 C84.2321758,10.9460846 84.1769295,11.0897251 84.07,11.19 C83.964776,11.2764389 83.835711,11.3287625 83.7,11.34 L84.27,12.22 L83.94,12.22 L83.4,11.37 L83.07,11.37 L83.07,12.2 L82.76,12.2 L82.76,10.2 L83.53,10.2 L83.53,10.23 Z M83.39,11.11 L83.59,11.11 L83.76,11.11 C83.8093043,11.0897544 83.8511954,11.0548452 83.88,11.01 C83.8966798,10.9511592 83.8966798,10.8888408 83.88,10.83 C83.8950037,10.7777219 83.8950037,10.7222781 83.88,10.67 C83.8551401,10.6317461 83.8206522,10.6007069 83.78,10.58 L83.64,10.58 L83.08,10.58 L83.08,11.1 L83.4,11.1 L83.39,11.11 Z" id="Shape"></path>
                </g>
            </g>
        </g>
    </g>
</svg>